# xmcd
#
# Track frame offsets:
#	150
#	37422
#	83182
#	101352
#	131347
#	160732
#	201570
#
# Disc length: 3029 seconds
#
# Revision: 1
# Processed by: cddbd v1.5.1PL0 Copyright (c) Steve Scherf et al.
# Submitted via: CDex 1.50Beta5
#
DISCID=5b0bd307
DTITLE=Yosihiro Kondo - ラヴェル作品集
DYEAR=1900
DGENRE=Classic
TTITLE0=協奏曲第1楽章
TTITLE1=第2楽章
TTITLE2=第3楽章
TTITLE3=夜のガスパール--水の精
TTITLE4=-絞首台
TTITLE5=-スカルボ
TTITLE6=水の戯れ
EXTD=
EXTT0=
EXTT1=
EXTT2=
EXTT3=
EXTT4=
EXTT5=
EXTT6=
PLAYORDER=
